<?xml version="1.0" encoding="utf-8"?>
<!-- Generator: Adobe Illustrator 22.0.1, SVG Export Plug-In . SVG Version: 6.00 Build 0)  -->
<svg version="1.1" id="Calque_2" xmlns="http://www.w3.org/2000/svg" xmlns:xlink="http://www.w3.org/1999/xlink" x="0px" y="0px"
	 viewBox="0 0 1000 1000" style="enable-background:new 0 0 1000 1000;" xml:space="preserve">
<style type="text/css">
	.st0{fill:#3400FC;}
	.st1{fill:#1C1C1C;}
	.st2{fill:#55FFFE;}
	.st3{fill:#F5001C;}
	.st4{fill:#15455E;}
	.st5{fill:#FFFFFF;}
	.st6{fill:#B3B3B3;}
	.st7{fill:#FBFF2A;}
	.st8{opacity:0.27;}
</style>
<path class="st0" d="M517.2,667.1c-122.8,0-229.8,67.1-286.6,166.6l21.6,103.8c76.1-50.1,167.1-79.3,265-79.3s188.9,29.2,265,79.3
	l21.6-103.8C747,734.2,639.9,667.1,517.2,667.1z"/>
<path class="st1" d="M649.6,353.6c-2.2-6.5-4.5-13-7-19.4c-5.6-14.6-11.7-28.9-18.6-42.8c-24.5-50.3-57.3-95.7-99.9-132.9h-14.1
	c-42.6,37.3-75.4,82.7-99.9,132.9c-6.8,13.9-13,28.2-18.6,42.8c-2.4,6.4-4.8,12.9-6.9,19.4c-33.8,99.6-41.4,211.7-32.4,316.5
	c0.5,6.9,1.2,13.8,1.9,20.7c5.3,49.6,14.1,97.2,25.5,140.7c1.9,7.2,3.8,14.2,5.9,21.2c7.8,27.1,16.6,52.3,26.1,75h210.9
	c9.5-22.7,18.3-47.9,26.1-75c2-6.9,4-14,5.9-21.2c11.4-43.4,20.2-91.1,25.5-140.8c0.7-6.9,1.4-13.7,1.9-20.7
	C691,565.2,683.5,453.1,649.6,353.6z"/>
<path class="st2" d="M517.2,667.1c-48.3,45-51.5,178.6,0,245.1C568.6,845.7,565.4,712.1,517.2,667.1z"/>
<polygon class="st3" points="577.9,988.3 456.4,988.3 434.6,927.6 599.7,927.6 "/>
<path class="st3" d="M624.1,291.4c-24.5-50.3-57.3-95.7-99.9-132.9h-14.1c-42.6,37.3-75.4,82.7-99.9,132.9
	c-6.8,13.9-13,28.2-18.6,42.8h251C637.1,319.6,630.9,305.3,624.1,291.4z"/>
<circle class="st4" cx="517.2" cy="387.5" r="76.4"/>
<circle class="st5" cx="517.2" cy="387.5" r="66.4"/>
<path class="st6" d="M462,372.2c23.8-54.3,84-55.4,109.5,0C537.4,334.2,491.8,337.5,462,372.2z"/>
<path class="st7" d="M508.7,180c-7.4,0-12.7-6-11.8-13.4L515.4,22c0.9-7.4,2.5-7.4,3.4,0l18.6,144.6c0.9,7.4-4.4,13.4-11.8,13.4
	H508.7z"/>
<path class="st7" d="M405.8,909.6v3.3c1.9,5,3.9,9.9,5.9,14.7h38.6v-18H405.8z"/>
<rect x="450.3" y="909.6" class="st3" width="44.6" height="18"/>
<rect x="494.9" y="909.6" width="44.6" height="18"/>
<rect x="539.4" y="909.6" class="st0" width="44.6" height="18"/>
<path class="st2" d="M584,909.6v18h38.6c2-4.8,4-9.8,5.9-14.8v-3.2H584z"/>
<path class="st7" d="M392.8,627.5c-7.9,0-14.7-2.8-20.2-8.4c-5.5-5.6-8.3-12.3-8.3-20.1v-65.4c0-7.9,2.8-14.6,8.4-20.2
	c5.6-5.6,12.3-8.3,20.2-8.3c7.9,0,14.7,2.8,20.2,8.4c5.5,5.6,8.3,12.3,8.3,20.2v13.6h-18.7v-13.9c0-2.9-1-5.3-3-7.4
	c-2-2-4.5-3-7.4-3c-2.8,0-5.3,1-7.3,3c-2,2-3,4.5-3,7.4v65.5c0,2.9,1,5.3,3,7.3c2,2,4.4,3,7.3,3c2.9,0,5.3-1,7.4-3c2-2,3-4.5,3-7.3
	v-23.5h-10v-18h28.7v41.7c0,7.9-2.8,14.7-8.4,20.2C407.3,624.8,400.6,627.5,392.8,627.5z"/>
<path class="st7" d="M465,505.2c7.9,0,14.7,2.8,20.3,8.4c5.6,5.6,8.3,12.3,8.3,20.2v65.1c0,7.9-2.8,14.7-8.4,20.3
	c-5.6,5.6-12.3,8.3-20.2,8.3c-7.9,0-14.6-2.8-20.1-8.4c-5.5-5.6-8.3-12.3-8.3-20.2v-65.1c0-7.9,2.8-14.7,8.4-20.3
	C450.6,508,457.3,505.2,465,505.2z M474.8,533.5c0-2.9-1-5.3-3-7.3c-2-2-4.4-3-7.3-3c-2.8,0-5.3,1-7.3,3c-2,2-3,4.4-3,7.3v65.3
	c0,2.8,1,5.3,3,7.3c2,2,4.5,3,7.3,3c2.9,0,5.3-1,7.3-3c2-2,3-4.4,3-7.3V533.5z"/>
<path class="st7" d="M571.5,627.5c-7.9,0-14.6-2.8-20.1-8.3c-5.5-5.5-8.3-12.2-8.3-20.1v-92.5h17.6V599c0,2.8,1,5.3,3,7.3
	c2,2,4.5,3,7.3,3c2.9,0,5.3-1,7.3-3c2-2,3-4.4,3-7.3v-92.3h18.8v92.5c0,8-2.8,14.7-8.4,20.2C586.1,624.8,579.4,627.5,571.5,627.5z"
	/>
<path class="st7" d="M644.4,506.7c8.8,0,15.8,2.8,20.9,8.3c4.8,5.3,7.3,12,7.3,20.2v17.3c0,7.9-2.7,14.6-8.2,20.2
	c-5.5,5.6-12.1,8.4-19.9,8.4h-10.4v45h-18V506.7H644.4z M655.1,535.4c0-3.1-0.9-5.7-2.8-7.6s-4.3-2.8-7.5-2.8h-10.8v38.2h10.8
	c2.9,0,5.3-1,7.3-3c2-2,3-4.5,3-7.3V535.4z"/>
<path class="st8" d="M678,709c0.8-6.1,1.5-12.2,2.1-18.3c0.7-6.9,1.4-13.7,1.9-20.7c8.9-104.8,1.4-217-32.4-316.5
	c-2.2-6.5-4.5-13-7-19.4c-5.6-14.6-11.7-28.9-18.6-42.8c-21.9-45-50.5-86-86.8-120.9c0.2-1.2,0.3-2.5,0.1-3.8L518.9,22
	c-0.6-4.5-1.4-6.2-2.1-5.3v971.6h61.1l21.9-60.7h22.9c1-2.3,1.9-4.6,2.9-7c0.1-0.2,0.1-0.3,0.2-0.5c5.8-14.3,11.2-29.5,16.4-45.5
	c50.4,13.5,97.6,34.9,140.2,62.9l21.6-103.8C774,781.6,730.4,738.3,678,709z"/>
</svg>
